<svg xmlns="http://www.w3.org/2000/svg" style="display: none;">
  <!--<symbol id="logo">-->
    <!--<path-->
      <!--d="M-0.000,-0.000 L26.258,-0.000 L26.258,26.000 L-0.000,26.000 L-0.000,-0.000 Z"/>-->
    <!--<path-->
      <!--d="M30.435,-0.000 L56.694,-0.000 L56.694,26.000 L30.435,26.000 L30.435,-0.000 Z"/>-->
    <!--<path-->
      <!--d="M60.871,-0.000 L87.129,-0.000 L87.129,26.000 L60.871,26.000 L60.871,-0.000 Z"/>-->
    <!--<path-->
      <!--d="M91.306,-0.000 L117.565,-0.000 L117.565,26.000 L91.306,26.000 L91.306,-0.000 Z"/>-->
    <!--<path-->
      <!--d="M121.742,-0.000 L148.000,-0.000 L148.000,26.000 L121.742,26.000 L121.742,-0.000 Z"/>-->
  <!--</symbol>-->
  <symbol viewBox="0 0 27 27" id="logo-o">
    <path
      d="M-0.000,-0.000 L26.258,-0.000 L26.258,26.000 L-0.000,26.000 L-0.000,-0.000 Z"/>
  </symbol>
  <symbol viewBox="0 0 60 60" id="rocket">
    <path
      d="M58.445,22.390 C57.103,25.944 55.737,28.348 51.984,31.627 C49.320,33.957 42.894,36.902 38.589,39.268 C37.009,40.137 35.331,41.028 34.384,41.607 L34.384,51.254 C34.384,51.800 34.141,52.318 33.719,52.672 L26.675,59.563 C26.325,59.858 25.885,60.014 25.438,60.014 C25.240,60.014 25.041,59.982 24.849,59.922 C24.218,59.720 23.740,59.208 23.588,58.575 L21.274,48.951 L16.977,44.267 C14.916,42.017 13.629,40.613 12.856,39.675 L1.512,37.125 C0.857,36.979 0.330,36.502 0.126,35.872 C-0.079,35.244 0.068,34.556 0.514,34.061 L7.483,26.633 C7.844,26.233 8.361,26.004 8.905,26.004 L19.481,26.004 C20.139,24.841 20.915,23.319 21.726,21.727 C23.827,17.603 26.208,12.637 28.603,9.890 C31.476,6.594 34.555,4.419 38.294,3.046 C48.529,-0.713 59.169,0.050 59.169,0.050 C60.118,0.119 60.870,0.867 60.928,1.800 C60.959,2.292 61.639,13.938 58.445,22.390 ZM57.190,3.723 C53.880,3.700 46.639,3.971 39.623,6.548 C36.471,7.707 33.960,9.488 31.490,12.323 C29.399,14.723 27.030,19.665 25.126,23.402 C24.002,25.608 23.031,27.513 22.194,28.852 C21.849,29.405 21.235,29.743 20.575,29.743 L9.760,29.743 L5.488,34.183 L14.197,36.142 C14.610,36.235 14.976,36.460 15.240,36.776 C15.645,37.232 20.927,42.992 24.423,46.803 C24.638,47.036 24.789,47.319 24.862,47.624 L26.570,54.728 L30.581,50.394 L30.581,40.623 C30.581,40.060 30.839,39.529 31.281,39.175 C32.050,38.556 33.805,37.616 36.734,36.006 C40.659,33.847 47.103,30.892 49.459,28.833 C52.649,26.044 53.709,24.189 54.881,21.089 C57.120,15.163 57.252,7.170 57.190,3.723 ZM41.986,26.106 C37.782,26.106 34.360,22.742 34.360,18.608 C34.360,14.473 37.782,11.109 41.986,11.109 C46.189,11.109 49.611,14.473 49.611,18.608 C49.611,22.742 46.189,26.106 41.986,26.106 ZM41.985,14.864 C39.887,14.864 38.179,16.544 38.179,18.608 C38.179,20.671 39.887,22.351 41.985,22.351 C44.084,22.351 45.792,20.671 45.792,18.608 C45.792,16.544 44.084,14.864 41.985,14.864 ZM6.130,44.467 C7.103,43.991 8.108,43.557 9.202,42.732 L11.517,45.638 C10.133,46.684 8.853,47.310 7.826,47.814 C5.379,49.014 4.157,49.690 3.965,55.998 C10.613,55.760 11.366,54.133 12.562,51.690 C13.028,50.741 13.556,49.662 14.402,48.528 L17.221,51.046 C16.524,52.186 16.294,52.756 15.881,53.602 C13.993,57.458 12.109,59.696 2.031,59.696 L0.163,59.737 L0.130,57.826 C0.130,48.437 2.052,46.467 6.130,44.467 Z"/>
  </symbol>
  <symbol viewBox="0 0 38 38" id="browser">

    <path
      d="M32.375,29.638 L32.375,11.563 C32.375,7.731 29.269,4.625 25.438,4.625 L7.362,4.625 C8.318,1.937 10.859,0.000 13.875,0.000 L30.063,0.000 C33.894,0.000 37.000,3.106 37.000,6.938 L37.000,23.125 C37.000,26.141 35.063,28.682 32.375,29.638 ZM30.063,13.875 L30.063,30.062 C30.063,33.894 26.956,37.000 23.125,37.000 L6.937,37.000 C3.106,37.000 -0.000,33.894 -0.000,30.062 L-0.000,13.875 C-0.000,10.044 3.106,6.938 6.937,6.938 L23.125,6.938 C26.956,6.938 30.063,10.044 30.063,13.875 ZM4.625,30.062 C4.625,31.340 5.660,32.375 6.937,32.375 L23.125,32.375 C24.402,32.375 25.438,31.340 25.438,30.062 L25.438,20.813 L4.625,20.813 L4.625,30.062 ZM4.625,13.875 L4.625,18.500 L25.438,18.500 L25.438,13.875 C25.438,12.598 24.402,11.563 23.125,11.563 L6.937,11.563 C5.660,11.563 4.625,12.598 4.625,13.875 ZM23.125,16.188 L16.188,16.188 L16.188,13.875 L23.125,13.875 L23.125,16.188 ZM11.562,13.875 L13.875,13.875 L13.875,16.188 L11.562,16.188 L11.562,13.875 ZM6.937,13.875 L9.250,13.875 L9.250,16.188 L6.937,16.188 L6.937,13.875 Z"/>

  </symbol>
  <symbol viewBox="0 0 38 38" id="anchor">

    <path
      d="M18.500,37.000 C8.283,37.000 -0.000,28.717 -0.000,18.500 L-0.000,18.500 L-0.000,13.875 L9.250,23.125 L5.440,23.125 C7.102,27.790 11.184,31.298 16.187,32.142 L16.187,20.812 L13.875,20.812 C12.598,20.812 11.562,19.777 11.562,18.500 C11.562,17.223 12.598,16.187 13.875,16.187 L16.187,16.187 L16.187,13.450 C13.499,12.495 11.562,9.954 11.562,6.937 C11.562,3.425 14.182,0.553 17.568,0.094 C17.869,0.032 18.181,-0.000 18.500,-0.000 C18.819,-0.000 19.131,0.032 19.432,0.094 C22.818,0.553 25.437,3.425 25.437,6.937 C25.437,9.954 23.501,12.495 20.812,13.450 L20.812,16.187 L23.125,16.187 C24.402,16.187 25.437,17.223 25.437,18.500 C25.437,19.777 24.402,20.812 23.125,20.812 L20.812,20.812 L20.812,32.142 C25.816,31.298 29.898,27.790 31.560,23.125 L27.750,23.125 L37.000,13.875 L37.000,18.500 L37.000,18.500 C37.000,28.717 28.717,37.000 18.500,37.000 ZM18.500,4.625 C17.223,4.625 16.187,5.660 16.187,6.937 C16.187,8.215 17.223,9.250 18.500,9.250 C19.777,9.250 20.812,8.215 20.812,6.937 C20.812,5.660 19.777,4.625 18.500,4.625 Z"/>

  </symbol>
  <symbol viewBox="0 0 38 38" id="print">

    <path
      d="M30.063,32.375 L30.063,34.687 C30.063,35.965 29.027,37.000 27.750,37.000 L9.250,37.000 C7.973,37.000 6.938,35.965 6.938,34.687 L6.938,32.375 C3.106,32.375 0.000,29.269 0.000,25.438 L0.000,18.500 C0.000,14.668 3.106,11.563 6.938,11.563 L6.938,2.312 C6.938,1.035 7.973,0.000 9.250,0.000 L27.750,0.000 C29.027,0.000 30.063,1.035 30.063,2.312 L30.063,11.563 C33.894,11.563 37.000,14.668 37.000,18.500 L37.000,25.438 C37.000,29.269 33.894,32.375 30.063,32.375 ZM9.250,34.687 L27.750,34.687 L27.750,25.438 L9.250,25.438 L9.250,34.687 ZM27.750,2.312 L9.250,2.312 L9.250,11.563 L11.563,11.563 L11.563,4.625 L25.438,4.625 L25.438,11.563 L27.750,11.563 L27.750,2.312 ZM13.875,6.937 L13.875,11.563 L23.125,11.563 L23.125,6.937 L13.875,6.937 ZM27.750,16.187 L25.438,16.187 L25.438,18.500 L27.750,18.500 L27.750,16.187 ZM27.750,20.812 L9.250,20.812 C6.696,20.812 4.625,22.883 4.625,25.438 L4.625,27.750 L6.938,27.750 L6.938,25.438 C6.938,24.160 7.973,23.125 9.250,23.125 L27.750,23.125 C29.027,23.125 30.062,24.160 30.062,25.438 L30.062,27.750 L32.375,27.750 L32.375,25.438 C32.375,22.883 30.304,20.812 27.750,20.812 ZM32.375,16.187 L30.063,16.187 L30.063,18.500 L32.375,18.500 L32.375,16.187 Z"/>

  </symbol>
  <symbol viewBox="0 0 24 24" id="arrow-left">
    <path
      d="M12.000,24.000 C5.373,24.000 -0.000,18.627 -0.000,12.000 C-0.000,5.373 5.373,-0.000 12.000,-0.000 C18.627,-0.000 24.000,5.373 24.000,12.000 C24.000,18.627 18.627,24.000 12.000,24.000 ZM12.000,3.000 C7.030,3.000 3.000,7.030 3.000,12.000 C3.000,16.970 7.030,21.000 12.000,21.000 C16.970,21.000 21.000,16.970 21.000,12.000 C21.000,7.030 16.970,3.000 12.000,3.000 ZM16.500,13.500 L12.000,13.500 L12.000,15.000 C12.000,15.606 11.634,16.154 11.074,16.386 C10.512,16.617 9.867,16.488 9.438,16.060 L6.438,13.060 C6.145,12.767 5.998,12.384 5.998,12.000 C5.998,11.616 6.145,11.232 6.438,10.939 L9.438,7.939 C9.867,7.510 10.513,7.383 11.074,7.614 C11.634,7.846 12.000,8.393 12.000,9.000 L12.000,10.500 L16.500,10.500 C17.329,10.500 18.000,11.171 18.000,12.000 C18.000,12.829 17.329,13.500 16.500,13.500 Z"/>
  </symbol>
  <symbol viewBox="0 0 24 24" id="arrow-right">
    <path
      d="M12.000,24.000 C5.373,24.000 -0.000,18.627 -0.000,12.000 C-0.000,5.373 5.373,-0.000 12.000,-0.000 C18.627,-0.000 24.000,5.373 24.000,12.000 C24.000,18.627 18.627,24.000 12.000,24.000 ZM12.000,3.000 C7.030,3.000 3.000,7.030 3.000,12.000 C3.000,16.970 7.030,21.000 12.000,21.000 C16.970,21.000 21.000,16.970 21.000,12.000 C21.000,7.030 16.970,3.000 12.000,3.000 ZM14.562,16.060 C14.133,16.488 13.488,16.617 12.926,16.386 C12.366,16.154 12.000,15.606 12.000,15.000 L12.000,13.500 L7.500,13.500 C6.671,13.500 6.000,12.829 6.000,12.000 C6.000,11.171 6.671,10.500 7.500,10.500 L12.000,10.500 L12.000,9.000 C12.000,8.393 12.366,7.846 12.926,7.614 C13.487,7.383 14.133,7.510 14.562,7.939 L17.562,10.939 C17.855,11.232 18.001,11.616 18.001,12.000 C18.001,12.384 17.855,12.767 17.562,13.060 L14.562,16.060 Z"/>
  </symbol>
  <symbol viewBox="0 0 430.113 430.114" id="facebook">
    <path d="M158.081,83.3c0,10.839,0,59.218,0,59.218h-43.385v72.412h43.385v215.183h89.122V214.936h59.805
		c0,0,5.601-34.721,8.316-72.685c-7.784,0-67.784,0-67.784,0s0-42.127,0-49.511c0-7.4,9.717-17.354,19.321-17.354
		c9.586,0,29.818,0,48.557,0c0-9.859,0-43.924,0-75.385c-25.016,0-53.476,0-66.021,0C155.878-0.004,158.081,72.48,158.081,83.3z"/>
  </symbol>
  <symbol viewBox="0 0 612 612" id="twitter">
    <path d="M612,116.258c-22.525,9.981-46.694,16.75-72.088,19.772c25.929-15.527,45.777-40.155,55.184-69.411
			c-24.322,14.379-51.169,24.82-79.775,30.48c-22.907-24.437-55.49-39.658-91.63-39.658c-69.334,0-125.551,56.217-125.551,125.513
			c0,9.828,1.109,19.427,3.251,28.606C197.065,206.32,104.556,156.337,42.641,80.386c-10.823,18.51-16.98,40.078-16.98,63.101
			c0,43.559,22.181,81.993,55.835,104.479c-20.575-0.688-39.926-6.348-56.867-15.756v1.568c0,60.806,43.291,111.554,100.693,123.104
			c-10.517,2.83-21.607,4.398-33.08,4.398c-8.107,0-15.947-0.803-23.634-2.333c15.985,49.907,62.336,86.199,117.253,87.194
			c-42.947,33.654-97.099,53.655-155.916,53.655c-10.134,0-20.116-0.612-29.944-1.721c55.567,35.681,121.536,56.485,192.438,56.485
			c230.948,0,357.188-191.291,357.188-357.188l-0.421-16.253C573.872,163.526,595.211,141.422,612,116.258z"/>
  </symbol>
  <symbol viewBox="0 0 438.533 438.533" id="dribble">
    <path d="M409.133,109.203c-19.608-33.592-46.205-60.189-79.798-79.796C295.736,9.801,259.058,0,219.273,0
		c-39.781,0-76.47,9.801-110.063,29.407c-33.595,19.604-60.192,46.201-79.8,79.796C9.801,142.8,0,179.489,0,219.267
		c0,39.78,9.804,76.463,29.407,110.062c19.607,33.592,46.204,60.189,79.799,79.798c33.597,19.605,70.283,29.407,110.063,29.407
		s76.47-9.802,110.065-29.407c33.593-19.602,60.189-46.206,79.795-79.798c19.603-33.596,29.403-70.284,29.403-110.062
		C438.533,179.485,428.732,142.795,409.133,109.203z M219.27,31.977c47.201,0,88.41,15.607,123.621,46.82l-3.569,4.993
		c-1.427,2.002-4.996,5.852-10.704,11.565c-5.709,5.708-11.943,11.136-18.699,16.274c-6.762,5.14-15.94,10.992-27.555,17.559
		c-11.611,6.567-23.982,12.328-37.117,17.276c-21.887-40.355-45.296-76.709-70.231-109.064
		C190.055,33.784,204.805,31.977,219.27,31.977z M72.524,103.06c18.271-23.026,40.537-40.73,66.806-53.1
		c23.601,31.405,46.82,67.381,69.662,107.921c-57.862,15.227-115.532,22.841-173.014,22.838
		C42.072,151.98,54.253,126.091,72.524,103.06z M44.54,286.794c-8.376-21.412-12.563-43.923-12.563-67.527
		c0-2.666,0.098-4.665,0.286-5.996c68.905,0,132.955-8.848,192.149-26.553c6.092,11.8,11.136,22.364,15.133,31.693
		c-0.771,0.38-1.999,0.806-3.713,1.283c-1.719,0.476-2.953,0.806-3.721,0.999l-10.561,3.711
		c-7.236,2.666-16.708,7.235-28.409,13.703c-11.704,6.478-24.123,14.182-37.257,23.13c-13.134,8.949-26.696,20.797-40.684,35.553
		c-13.99,14.75-25.743,30.591-35.26,47.53C64.713,327.381,52.914,308.2,44.54,286.794z M219.27,406.56
		c-44.54,0-84.32-14.277-119.343-42.825l4.283,3.142c6.661-14.66,16.462-28.746,29.408-42.257
		c12.944-13.511,25.41-24.413,37.401-32.695c11.991-8.274,25.028-16.077,39.115-23.414c14.084-7.323,23.691-11.991,28.835-13.983
		c5.14-1.998,9.233-3.572,12.278-4.716l0.568-0.287h0.575c18.647,48.916,31.977,96.313,39.968,142.184
		C268.756,401.611,244.397,406.557,219.27,406.56z M376.876,320.479c-14.086,21.796-31.696,39.834-52.817,54.104
		c-7.81-43.776-19.985-88.415-36.549-133.902c37.877-5.907,76.8-3.142,116.771,8.274
		C400.092,274.841,390.955,298.687,376.876,320.479z M403.706,216.698c-1.903-0.378-4.285-0.81-7.139-1.283
		c-2.854-0.473-6.331-1.047-10.424-1.713c-4.087-0.666-8.662-1.283-13.702-1.855c-5.045-0.571-10.421-1.093-16.136-1.569
		c-5.708-0.478-11.8-0.855-18.268-1.143c-6.479-0.284-13.042-0.428-19.705-0.428c-6.656,0-13.657,0.193-20.981,0.571
		c-7.326,0.375-14.414,1.049-21.265,1.999c-0.575-0.953-1.287-2.524-2.143-4.714c-0.855-2.187-1.479-3.855-1.848-4.997
		c-3.621-7.994-7.81-17.036-12.573-27.121c13.134-5.333,25.652-11.469,37.555-18.418c11.892-6.949,21.402-13.131,28.544-18.555
		c7.139-5.43,13.895-11.188,20.27-17.277c6.379-6.09,10.513-10.323,12.423-12.703c1.906-2.384,3.713-4.714,5.424-6.995l0.287-0.288
		c27.788,33.88,41.974,72.897,42.538,117.059L403.706,216.698z"/></symbol>
  <symbol viewBox="0 0 510 510" id="heart">
    <path d="M255,489.6l-35.7-35.7C86.7,336.6,0,257.55,0,160.65C0,81.6,61.2,20.4,140.25,20.4c43.35,0,86.7,20.4,114.75,53.55
			C283.05,40.8,326.4,20.4,369.75,20.4C448.8,20.4,510,81.6,510,160.65c0,96.9-86.7,175.95-219.3,293.25L255,489.6z"/>
  </symbol>
</svg>
